HIERARCHY
ROOT Hips
{
	OFFSET	0.00	0.00	0.00
	CHANNELS 6 Xposition Yposition Zposition Zrotation Xrotation Yrotation
	JOINT LeftUpLeg
	{
		OFFSET	 0.126116	-0.014019	-0.065224
		CHANNELS 3 Zrotation Xrotation Yrotation
		JOINT LeftLeg
		{
			OFFSET	 0.000000	 0.000000	 0.569914
			CHANNELS 3 Zrotation Xrotation Yrotation
			JOINT LeftFoot
			{
				OFFSET	 0.000000	 0.000000	 0.544423
				CHANNELS 3 Zrotation Xrotation Yrotation
				JOINT LeftToeBase
				{
					OFFSET	 0.000000	 0.000000	 0.207117
					CHANNELS 3 Zrotation Xrotation Yrotation
					End Site
					{
						OFFSET	 0.000000	 0.000000	 0.207117
					}
				}
			}
		}
	}
	JOINT RightUpLeg
	{
		OFFSET	-0.124023	-0.008373	-0.065224
		CHANNELS 3 Zrotation Xrotation Yrotation
		JOINT RightLeg
		{
			OFFSET	 0.000000	 0.000000	 0.570047
			CHANNELS 3 Zrotation Xrotation Yrotation
			JOINT RightFoot
			{
				OFFSET	 0.000000	 0.000000	 0.544354
				CHANNELS 3 Zrotation Xrotation Yrotation
				JOINT RightToeBase
				{
					OFFSET	 0.000000	 0.000000	 0.207540
					CHANNELS 3 Zrotation Xrotation Yrotation
					End Site
					{
						OFFSET	 0.000000	 0.000000	 0.207540
					}
				}
			}
		}
	}
	JOINT Spine
	{
		OFFSET	 0.000184	-0.007763	 0.117403
		CHANNELS 3 Zrotation Xrotation Yrotation
		JOINT Spine1
		{
			OFFSET	 0.000000	 0.000000	 0.137269
			CHANNELS 3 Zrotation Xrotation Yrotation
			JOINT Spine2
			{
				OFFSET	 0.000000	 0.000000	 0.156879
				CHANNELS 3 Zrotation Xrotation Yrotation
				JOINT LeftShoulder
				{
					OFFSET	 0.080501	-0.002496	 0.160144
					CHANNELS 3 Zrotation Xrotation Yrotation
					JOINT LeftArm
					{
						OFFSET	 0.000000	 0.000000	 0.164363
						CHANNELS 3 Zrotation Xrotation Yrotation
						JOINT LeftForeArm
						{
							OFFSET	 0.000000	 0.000000	 0.364576
							CHANNELS 3 Zrotation Xrotation Yrotation
							JOINT LeftHand
							{
								OFFSET	 0.000000	 0.000000	 0.360812
								CHANNELS 3 Zrotation Xrotation Yrotation
								JOINT LeftHandIndex1
								{
									OFFSET	 0.000000	 0.000000	 0.086006
									CHANNELS 3 Zrotation Xrotation Yrotation
									JOINT LeftHandIndex2
									{
										OFFSET	 0.000000	 0.000000	 0.047236
										CHANNELS 3 Zrotation Xrotation Yrotation
										JOINT LeftHandIndex3
										{
											OFFSET	-0.004284	-0.000551	 0.038166
											CHANNELS 3 Zrotation Xrotation Yrotation
											End Site
											{
												OFFSET	-0.004284	-0.000551	 0.038166
											}
										}
									}
								}
							}
						}
					}
				}
				JOINT Neck
				{
					OFFSET	 0.000000	 0.000000	 0.176489
					CHANNELS 3 Zrotation Xrotation Yrotation
					JOINT Head
					{
						OFFSET	 0.000000	-0.001747	 0.077940
						CHANNELS 3 Zrotation Xrotation Yrotation
						End Site
						{
							OFFSET	 0.000000	-0.001747	 0.077940
						}
					}
				}
				JOINT RightShoulder
				{
					OFFSET	-0.080363	 0.000306	 0.159706
					CHANNELS 3 Zrotation Xrotation Yrotation
					JOINT RightArm
					{
						OFFSET	 0.000000	 0.000000	 0.164196
						CHANNELS 3 Zrotation Xrotation Yrotation
						JOINT RightForeArm
						{
							OFFSET	 0.000000	 0.000000	 0.365611
							CHANNELS 3 Zrotation Xrotation Yrotation
							JOINT RightHand
							{
								OFFSET	 0.000000	 0.000000	 0.360648
								CHANNELS 3 Zrotation Xrotation Yrotation
								JOINT RightHandIndex1
								{
									OFFSET	 0.000000	 0.000000	 0.069977
									CHANNELS 3 Zrotation Xrotation Yrotation
									JOINT RightHandIndex2
									{
										OFFSET	 0.000000	 0.000000	 0.052305
										CHANNELS 3 Zrotation Xrotation Yrotation
										JOINT RightHandIndex3
										{
											OFFSET	 0.009002	-0.000782	 0.042196
											CHANNELS 3 Zrotation Xrotation Yrotation
											End Site
											{
												OFFSET	 0.009002	-0.000782	 0.042196
											}
										}
									}
								}
							}
						}
					}
				}
			}
		}
	}
}
MOTION
Frames:    8
Frame Time: 0.03333334
-0.038692	 0.238184	 1.050307	 3.226552	 33.239570	-8.282527	 18.280930	-81.471770	-161.495600	 5.946265	-69.754060	 5.972621	 1.866165	 76.882320	-1.038029	-2.385832	 28.452790	-0.000001	 67.572940	-77.570960	-115.928300	-16.684010	-73.497820	-11.074470	 29.768200	 75.843030	-18.339110	 2.384659	 28.388700	-0.000001	-10.139980	 14.622440	 0.357314	-1.555250	 21.285430	 0.504451	-5.805244	-2.364346	 4.322872	-99.142130	 68.199200	 156.857500	 7.574312	-5.070094	-55.673690	-22.378070	 2.286274	-8.491389	-35.542760	-62.681180	-23.499470	-2.027600	 6.559038	 9.033609	-5.188889	 0.308190	 3.541030	-5.234859	 0.342567	 0.430617	 0.316229	 17.385680	-5.911129	-4.811717	-28.022870	-3.192253	 97.434260	 64.635910	-159.240100	-8.879186	 5.310060	 55.737840	 4.998993	 8.315873	 33.373590	 13.090270	-62.135940	 14.434380	 1.803333	 3.979147	-15.098590	 4.898592	 3.004813	-9.310344	 5.224449	 0.395017	 2.014677
-0.037314	 0.237821	 1.059834	 3.103320	 32.559430	-7.988710	 14.825950	-80.001350	-164.889600	 5.363236	-68.422870	 5.377215	 2.018024	 76.324700	-1.174228	-2.385832	 28.452790	-0.000001	 60.394630	-76.983900	-122.987700	-15.982010	-72.133810	-10.324700	 28.897070	 75.396470	-17.354610	 2.384659	 28.388700	-0.000001	-9.710179	 14.485820	 0.250267	-1.381026	 21.392260	 0.266394	-5.978543	-2.822453	 4.179547	-98.974100	 68.273670	 157.261800	 7.858771	-3.787082	-56.018340	-22.243640	 2.294486	-8.509644	-35.813100	-63.543870	-23.582990	-2.027600	 6.559038	 9.033609	-5.188889	 0.308190	 3.541030	-5.234859	 0.342567	 0.430617	-0.016049	 15.328910	-5.102451	-5.189303	-25.918850	-3.531217	 97.324020	 64.523670	-159.638800	-9.501019	 5.379099	 55.206140	 5.177387	 8.719609	 34.401490	 13.453970	-62.904440	 15.076960	 1.803333	 3.979147	-15.098590	 4.898592	 3.004813	-9.310344	 5.224449	 0.395017	 2.014677
-0.036082	 0.237456	 1.068536	 3.047698	 31.949560	-7.760660	 12.288840	-78.642720	-167.306900	 4.996068	-67.165110	 4.990643	 2.050988	 75.746800	-1.269721	-2.385832	 28.452790	-0.000001	 54.429090	-76.296220	-128.794200	-15.429510	-70.879520	-9.727074	 28.041110	 74.959920	-16.423180	 2.384659	 28.388700	-0.000001	-9.335278	 14.362830	 0.175337	-1.205300	 21.492590	 0.036938	-6.154040	-3.243556	 4.043654	-98.734960	 68.517590	 157.635800	 8.164883	-2.493280	-56.463720	-22.089420	 2.300491	-8.523620	-36.064820	-64.069980	-23.755280	-2.027600	 6.559038	 9.033609	-5.188889	 0.308190	 3.541030	-5.234859	 0.342567	 0.430617	-0.268375	 13.242100	-4.591558	-5.419518	-23.799920	-3.633297	 97.202550	 64.323710	-160.144800	-10.110860	 5.260888	 54.806710	 5.261137	 9.076431	 35.402100	 13.464810	-63.157380	 15.553720	 1.803333	 3.979147	-15.098590	 4.898592	 3.004813	-9.310344	 5.224449	 0.395017	 2.014677
-0.034516	 0.236886	 1.078987	 2.987225	 31.224750	-7.496455	 9.966743	-76.978680	-169.484000	 4.607507	-65.632100	 4.578479	 2.075868	 75.055320	-1.353818	-2.385832	 28.452790	-0.000001	 48.083540	-75.289480	-134.947500	-14.847480	-69.352520	-9.088820	 27.070930	 74.431500	-15.348620	 2.384659	 28.388700	-0.000001	-8.888268	 14.191870	 0.091115	-0.995845	 21.540140	-0.212432	-6.361074	-3.699543	 3.878017	-98.459770	 68.801830	 158.070700	 8.572959	-0.941198	-56.942690	-21.909880	 2.305753	-8.536648	-36.096600	-64.382190	-23.778520	-2.027600	 6.559038	 9.033609	-5.188889	 0.308190	 3.541030	-5.234859	 0.342567	 0.430617	-0.535203	 10.820260	-4.017153	-5.661518	-21.344630	-3.723419	 97.058410	 64.091770	-160.730000	-10.856820	 5.137754	 54.246470	 5.320803	 9.519629	 36.683110	 13.334820	-63.119510	 16.006660	 1.803333	 3.979147	-15.098590	 4.898592	 3.004813	-9.310344	 5.224449	 0.395017	 2.014677
-0.033131	 0.236336	 1.088041	 2.899992	 30.538870	-7.217617	 8.287604	-75.468130	-171.081700	 4.319556	-64.322310	 4.270216	 2.090585	 74.496840	-1.426257	-2.385832	 28.452790	-0.000001	 43.053670	-74.269780	-139.844900	-14.465110	-68.018690	-8.652056	 26.371520	 73.988700	-14.554340	 2.384659	 28.388700	-0.000001	-8.521509	 14.045330	 0.020507	-0.842801	 21.628980	-0.401044	-6.535267	-4.211025	 3.699015	-98.073150	 69.334910	 158.483800	 9.023396	 0.642554	-57.459670	-21.699640	 2.306587	-8.542283	-36.316530	-64.366320	-24.118970	-2.027600	 6.559038	 9.033609	-5.188889	 0.308190	 3.541030	-5.234859	 0.342567	 0.430617	-0.729943	 8.255623	-3.463062	-5.893878	-18.787110	-3.850448	 96.902750	 64.150420	-161.086100	-11.528910	 5.511980	 53.749650	 5.119784	 9.769593	 37.815370	 12.743830	-62.764490	 15.956640	 1.803333	 3.979147	-15.098590	 4.898592	 3.004813	-9.310344	 5.224449	 0.395017	 2.014677
-0.031429	 0.235376	 1.098666	 2.803219	 29.719280	-6.878321	 6.688008	-73.654850	-172.596600	 4.023209	-62.790070	 3.950085	 2.114074	 73.866390	-1.498974	-2.385833	 28.452760	 0.000004	 37.888620	-72.930370	-144.864100	-14.091660	-66.455850	-8.211313	 25.636340	 73.479250	-13.684410	 2.384659	 28.388700	-0.000001	-8.083079	 13.845230	-0.065254	-0.662712	 21.699300	-0.597946	-6.741455	-4.814428	 3.471751	-97.584850	 70.030810	 158.974800	 9.582025	 2.561812	-58.076810	-21.445180	 2.306959	-8.547448	-36.369530	-64.019030	-24.439040	-2.027600	 6.559038	 9.033609	-5.188889	 0.308190	 3.541030	-5.234859	 0.342567	 0.430617	-0.920419	 5.140128	-2.812402	-6.148532	-15.691610	-3.984650	 96.714680	 64.281700	-161.469900	-12.340240	 6.077400	 53.137270	 4.794148	 10.043110	 39.266980	 11.824200	-61.989730	 15.746800	 1.803333	 3.979147	-15.098590	 4.898592	 3.004813	-9.310344	 5.224449	 0.395017	 2.014677
-0.029423	 0.234307	 1.109838	 2.715025	 28.881640	-6.500279	 5.361390	-71.753050	-173.851900	 3.817569	-61.153270	 3.710290	 2.201432	 73.218760	-1.657969	-2.385833	 28.452760	 0.000004	 33.284330	-71.411510	-149.320000	-13.790290	-64.776790	-7.830599	 25.026390	 72.945900	-12.894730	 2.384659	 28.388700	-0.000001	-7.640787	 13.622410	-0.172888	-0.475108	 21.724900	-0.823607	-6.934967	-5.409488	 3.269266	-96.937300	 71.048530	 159.444700	 10.220660	 4.721000	-58.869800	-21.164760	 2.304945	-8.548511	-36.152900	-63.359160	-24.546000	-2.027600	 6.559038	 9.033609	-5.188889	 0.308190	 3.541030	-5.234859	 0.342567	 0.430617	-1.074459	 1.955046	-2.387244	-6.322287	-12.545360	-3.914598	 96.408630	 64.738010	-161.897500	-13.188170	 7.013480	 52.731220	 4.380824	 10.280830	 40.814800	 10.857200	-61.042260	 15.479160	 1.803333	 3.979147	-15.098590	 4.898592	 3.004813	-9.310344	 5.224449	 0.395017	 2.014677
-0.027505	 0.233362	 1.120013	 2.631273	 28.114810	-6.121141	 4.331262	-70.007020	-174.847100	 3.727901	-59.644200	 3.577849	 2.277689	 72.643840	-1.838278	-2.385833	 28.452760	 0.000004	 29.605700	-69.942480	-152.876000	-13.600530	-63.203250	-7.557477	 24.539270	 72.459270	-12.207500	 2.384659	 28.388700	-0.000001	-7.239730	 13.437020	-0.282003	-0.297384	 21.750070	-1.058849	-7.091597	-5.956919	 3.115714	-96.150810	 72.337820	 159.820300	 10.860380	 6.900831	-59.843510	-20.887340	 2.300758	-8.545568	-35.771310	-62.528500	-24.485220	-2.027600	 6.559038	 9.033609	-5.188889	 0.308190	 3.541030	-5.234859	 0.342567	 0.430617	-1.198005	-0.977557	-2.264487	-6.411933	-9.668742	-3.633053	 95.995810	 65.528690	-162.328400	-13.950310	 8.268233	 52.698730	 3.939883	 10.423140	 42.176270	 9.984005	-60.137640	 15.199040	 1.803333	 3.979147	-15.098590	 4.898592	 3.004813	-9.310344	 5.224449	 0.395017	 2.014677
